<mxfile host="app.diagrams.net" agent="Mozilla/5.0 (Windows NT 10.0; Win64; x64) AppleWebKit/537.36 (KHTML, like Gecko) Chrome/130.0.0.0 Safari/537.36" version="24.8.3">
  <diagram name="Page-1" id="mf3pbiEKWLnP7e9JJuCB">
    <mxGraphModel dx="1050" dy="596" grid="1" gridSize="10" guides="1" tooltips="1" connect="1" arrows="1" fold="1" page="1" pageScale="1" pageWidth="850" pageHeight="1100" math="0" shadow="0">
      <root>
        <mxCell id="0" />
        <mxCell id="1" parent="0" />
        <mxCell id="818d8t7KhG2oITbNVRv7-1" value="&lt;div&gt;&lt;br&gt;&lt;/div&gt;" style="rounded=0;whiteSpace=wrap;html=1;" vertex="1" parent="1">
          <mxGeometry x="40" y="140" width="280" height="220" as="geometry" />
        </mxCell>
        <mxCell id="818d8t7KhG2oITbNVRv7-2" value="ML&lt;div&gt;agent&lt;/div&gt;&lt;div&gt;&lt;br&gt;&lt;/div&gt;&lt;div&gt;Spotify&lt;/div&gt;&lt;div&gt;Analyzer&lt;/div&gt;" style="rounded=0;whiteSpace=wrap;html=1;" vertex="1" parent="1">
          <mxGeometry x="50" y="170" width="80" height="180" as="geometry" />
        </mxCell>
        <mxCell id="818d8t7KhG2oITbNVRv7-3" value="Connection to&lt;div&gt;MongoDB&lt;/div&gt;" style="rounded=0;whiteSpace=wrap;html=1;" vertex="1" parent="1">
          <mxGeometry x="140" y="290" width="170" height="60" as="geometry" />
        </mxCell>
        <mxCell id="818d8t7KhG2oITbNVRv7-4" value="" style="endArrow=classic;startArrow=classic;html=1;rounded=0;entryX=0.5;entryY=1;entryDx=0;entryDy=0;exitX=0.5;exitY=0.25;exitDx=0;exitDy=0;exitPerimeter=0;" edge="1" parent="1" source="818d8t7KhG2oITbNVRv7-5" target="818d8t7KhG2oITbNVRv7-3">
          <mxGeometry width="50" height="50" relative="1" as="geometry">
            <mxPoint x="225" y="460" as="sourcePoint" />
            <mxPoint x="450" y="360" as="targetPoint" />
          </mxGeometry>
        </mxCell>
        <mxCell id="818d8t7KhG2oITbNVRv7-5" value="&lt;div&gt;&lt;br&gt;&lt;/div&gt;Cloud&lt;div&gt;&lt;br&gt;&lt;/div&gt;" style="ellipse;shape=cloud;whiteSpace=wrap;html=1;" vertex="1" parent="1">
          <mxGeometry x="165" y="380" width="120" height="80" as="geometry" />
        </mxCell>
        <mxCell id="818d8t7KhG2oITbNVRv7-7" value="" style="endArrow=classic;html=1;rounded=0;exitX=0.495;exitY=0.965;exitDx=0;exitDy=0;exitPerimeter=0;" edge="1" parent="1" source="818d8t7KhG2oITbNVRv7-5">
          <mxGeometry width="50" height="50" relative="1" as="geometry">
            <mxPoint x="400" y="440" as="sourcePoint" />
            <mxPoint x="224" y="520" as="targetPoint" />
          </mxGeometry>
        </mxCell>
        <mxCell id="818d8t7KhG2oITbNVRv7-8" value="MongoDB" style="shape=datastore;whiteSpace=wrap;html=1;" vertex="1" parent="1">
          <mxGeometry x="180" y="520" width="90" height="90" as="geometry" />
        </mxCell>
        <mxCell id="818d8t7KhG2oITbNVRv7-9" value="Connection to&lt;br&gt;Spotify" style="rounded=0;whiteSpace=wrap;html=1;" vertex="1" parent="1">
          <mxGeometry x="140" y="170" width="170" height="60" as="geometry" />
        </mxCell>
        <mxCell id="818d8t7KhG2oITbNVRv7-10" value="" style="endArrow=classic;startArrow=classic;html=1;rounded=0;exitX=0.5;exitY=0;exitDx=0;exitDy=0;" edge="1" parent="1" source="818d8t7KhG2oITbNVRv7-9" target="818d8t7KhG2oITbNVRv7-11">
          <mxGeometry width="50" height="50" relative="1" as="geometry">
            <mxPoint x="200" y="160" as="sourcePoint" />
            <mxPoint x="200" y="90" as="targetPoint" />
          </mxGeometry>
        </mxCell>
        <mxCell id="818d8t7KhG2oITbNVRv7-11" value="Spotfy&lt;br&gt;DB" style="shape=datastore;whiteSpace=wrap;html=1;" vertex="1" parent="1">
          <mxGeometry x="177.5" y="10" width="95" height="80" as="geometry" />
        </mxCell>
        <mxCell id="818d8t7KhG2oITbNVRv7-12" value="HTTP requests" style="rounded=0;whiteSpace=wrap;html=1;" vertex="1" parent="1">
          <mxGeometry x="140" y="240" width="170" height="40" as="geometry" />
        </mxCell>
        <mxCell id="818d8t7KhG2oITbNVRv7-13" value="Client" style="whiteSpace=wrap;html=1;aspect=fixed;" vertex="1" parent="1">
          <mxGeometry x="560" y="140" width="220" height="220" as="geometry" />
        </mxCell>
        <mxCell id="818d8t7KhG2oITbNVRv7-14" value="" style="endArrow=classic;startArrow=classic;html=1;rounded=0;exitX=1;exitY=0.5;exitDx=0;exitDy=0;" edge="1" parent="1" source="818d8t7KhG2oITbNVRv7-12">
          <mxGeometry width="50" height="50" relative="1" as="geometry">
            <mxPoint x="400" y="340" as="sourcePoint" />
            <mxPoint x="560" y="260" as="targetPoint" />
          </mxGeometry>
        </mxCell>
        <mxCell id="818d8t7KhG2oITbNVRv7-16" value="" style="sketch=0;pointerEvents=1;shadow=0;dashed=0;html=1;strokeColor=none;fillColor=#505050;labelPosition=center;verticalLabelPosition=bottom;verticalAlign=top;outlineConnect=0;align=center;shape=mxgraph.office.security.lock_protected;" vertex="1" parent="1">
          <mxGeometry x="425" y="232" width="28" height="37" as="geometry" />
        </mxCell>
        <mxCell id="818d8t7KhG2oITbNVRv7-17" value="Data: JSON&lt;div&gt;Web Token&lt;/div&gt;" style="text;html=1;align=center;verticalAlign=middle;resizable=0;points=[];autosize=1;strokeColor=none;fillColor=none;" vertex="1" parent="1">
          <mxGeometry x="394" y="197" width="90" height="40" as="geometry" />
        </mxCell>
        <mxCell id="818d8t7KhG2oITbNVRv7-18" value="Server" style="text;html=1;align=center;verticalAlign=middle;whiteSpace=wrap;rounded=0;" vertex="1" parent="1">
          <mxGeometry x="150" y="140" width="60" height="30" as="geometry" />
        </mxCell>
      </root>
    </mxGraphModel>
  </diagram>
</mxfile>
